<?xml version="1.0" encoding="UTF-8" standalone="no"?>
<!DOCTYPE svg PUBLIC "-//W3C//DTD SVG 1.1//EN" "http://www.w3.org/Graphics/SVG/1.1/DTD/svg11.dtd">
<svg width="100%" height="100%" viewBox="0 0 293 251" version="1.1" xmlns="http://www.w3.org/2000/svg" xmlns:xlink="http://www.w3.org/1999/xlink" xml:space="preserve" xmlns:serif="http://www.serif.com/" style="fill-rule:evenodd;clip-rule:evenodd;stroke-linecap:square;stroke-linejoin:round;stroke-miterlimit:10;">
    <g transform="matrix(1,0,0,1,-838.702,-70.865)">
        <g transform="matrix(1,0,0,1,669.686,0)">
            <g transform="matrix(0.058072,0,0,0.058072,169.016,70.865)">
                <rect x="0" y="0" width="5040" height="4320" style="fill:white;"/>
            </g>
            <g>
                <clipPath id="_clip1">
                    <rect x="205.601" y="95.952" width="226.829" height="200.697" clip-rule="nonzero"/>
                </clipPath>
                <g clip-path="url(#_clip1)">
                    <g transform="matrix(0.058072,0,0,0.058072,169.016,70.865)">
                        <rect x="630" y="432" width="3906" height="3456" style="fill:white;"/>
                    </g>
                    <g transform="matrix(0.058072,0,0,0.058072,169.016,14.9637)">
                        <path d="M630,3669.74L658.938,3668.81L659.293,3667.87L659.645,3668.81L660.355,3669.74L660.711,3668.81L665.328,3667.87L666.391,3666.93L667.637,3667.87L671.719,3668.81L672.961,3669.74L676.332,3668.81L677.574,3667.87L680.418,3668.81L680.594,3669.74L680.949,3668.81L681.66,3667.87L682.016,3668.81L682.902,3667.87L684.145,3666.93L685.387,3667.87L691.246,3668.81L692.488,3669.74L703.316,3670.68L704.559,3671.62L705.09,3670.68L705.625,3671.62L717.34,3672.56L718.582,3673.49L719.117,3672.56L721.066,3570.37L725.859,3471.93L735.27,3339.74L744.855,3249.74L747.695,3229.12L751.07,3204.74L759.234,3167.24L759.59,3166.31L761.543,3161.62L761.898,3160.68L764.383,3153.18L764.918,3152.24L767.047,3146.62L768.645,3145.68L770.598,3140.99L771.309,3140.06L773.082,3136.31L774.148,3135.37L775.746,3132.56L778.055,3131.62L779.648,3128.81L788.172,3127.87L788.703,3126.93L789.238,3127.87L795.98,3126.93L797.578,3123.18L798.289,3124.12L798.645,3123.18L802.02,3122.24L803.262,3121.31L806.457,3122.24L808.766,3128.81L809.473,3129.74L811.07,3132.56L813.023,3131.62L813.379,3130.68L814.09,3131.62L817.996,3130.68L819.414,3128.81L822.609,3129.74L822.965,3130.68L823.496,3129.74L824.742,3128.81L825.273,3129.74L825.629,3130.68L825.805,3129.74L826.16,3128.81L826.871,3129.74L832.02,3128.81L833.438,3126.93L841.25,3125.99L842.316,3125.06L847.996,3149.43L848.527,3150.37L849.77,3152.24L851.191,3150.37L852.969,3149.43L854.387,3147.56L855.984,3146.62L857.582,3143.81L858.824,3142.87L860.246,3140.99L861.844,3140.06L862.02,3139.12L862.906,3140.06L864.859,3139.12L866.637,3135.37L867.699,3134.43L869.121,3132.56L874.625,3131.62L875.336,3128.81L875.867,3129.74L877.465,3132.56L878.887,3130.68L882.258,3129.74L883.324,3128.81L884.387,3129.74L885.633,3128.81L886.695,3127.87L887.762,3126.93L889.004,3127.87L889.891,3126.93L891.488,3123.18L892.02,3124.12L892.555,3123.18L895.57,3122.24L896.812,3121.31L899.301,3122.24L900.188,3123.18L900.363,3122.24L908.887,3121.31L909.062,3120.37L909.418,3121.31L909.773,3122.24L910.484,3121.31L917.406,3122.24L918.648,3123.18L926.461,3122.24L926.816,3121.31L927.172,3122.24L928.414,3123.18L933.918,3122.24L935.336,3120.37L936.047,3119.43L937.289,3118.49L943.504,3117.56L944.391,3116.62L944.566,3117.56L948.297,3116.62L949.715,3114.74L950.781,3115.68L951.848,3114.74L953.09,3115.68L957.527,3116.62L958.414,3117.56L958.594,3116.62L966.758,3117.56L968.18,3119.43L971.906,3120.37L972.082,3121.31L972.973,3120.37L976.52,3121.31L976.699,3122.24L977.055,3121.31L977.23,3120.37L977.586,3121.31L978.828,3122.24L982.734,3123.18L982.91,3124.12L983.09,3123.18L983.801,3122.24L984.156,3123.18L986.641,3124.12L988.238,3126.93L989.48,3127.87L990.723,3129.74L990.902,3128.81L991.258,3129.74L991.789,3130.68L992.32,3129.74L993.387,3128.81L994.273,3127.87L994.449,3128.81L997.469,3129.74L998.535,3130.68L999.953,3127.87L1000.31,3128.81L1001.02,3127.87L1002.08,3125.99L1002.26,3126.93L1004.57,3125.99L1005.81,3125.06L1010.61,3124.12L1011.85,3123.18L1015.04,3122.24L1016.46,3120.37L1019.48,3119.43L1020.55,3117.56L1020.72,3118.49L1021.61,3117.56L1022.85,3116.62L1023.56,3115.68L1024.98,3113.81L1028.89,3114.74L1029.07,3115.68L1029.96,3114.74L1031.55,3115.68L1033.51,3120.37L1033.86,3121.31L1035.99,3126.93L1036.52,3127.87L1037.41,3129.74L1037.77,3128.81L1038.83,3129.74L1040.07,3130.68L1046.82,3129.74L1048.06,3128.81L1051.26,3127.87L1052.15,3126.93L1052.32,3127.87L1056.41,3126.93L1057.83,3125.06L1059.6,3124.12L1060.84,3123.18L1062.8,3122.24L1064.39,3119.43L1066.52,3118.49L1067.77,3117.56L1069.01,3116.62L1069.37,3115.68L1069.72,3116.62L1071.14,3118.49L1072.38,3117.56L1073.98,3118.49L1075.22,3119.43L1079.31,3118.49L1080.73,3116.62L1081.61,3115.68L1083.03,3113.81L1084.99,3112.87L1086.05,3111.93L1087.47,3113.81L1092.27,3112.87L1092.62,3111.93L1093.33,3112.87L1093.86,3113.81L1094.4,3112.87L1096.17,3113.81L1097.59,3115.68L1100.79,3116.62L1102.21,3118.49L1103.8,3115.68L1104.87,3116.62L1105.05,3117.56L1105.58,3116.62L1106.29,3115.68L1106.64,3116.62L1108.24,3115.68L1109.48,3114.74L1114.28,3115.68L1115.7,3117.56L1119.78,3118.49L1120.67,3120.37L1121.02,3119.43L1122.27,3118.49L1125.11,3117.56L1125.28,3116.62L1126.17,3117.56L1128.12,3116.62L1129.37,3115.68L1131.32,3114.74L1132.39,3113.81L1133.63,3114.74L1140.2,3113.81L1140.37,3112.87L1141.26,3113.81L1141.44,3114.74L1141.79,3113.81L1142.68,3112.87L1142.86,3113.81L1143.39,3114.74L1143.57,3115.68L1143.75,3114.74L1144.46,3113.81L1144.81,3114.74L1149.43,3113.81L1150.85,3111.93L1152.09,3110.99L1153.33,3110.06L1154.22,3109.12L1155.46,3108.18L1161.68,3107.24L1162.21,3106.31L1162.74,3107.24L1167.36,3108.18L1168.6,3109.12L1169.84,3108.18L1171.79,3103.49L1173.22,3102.56L1174.64,3100.68L1177.48,3099.74L1177.65,3098.81L1178.01,3099.74L1179.07,3100.68L1180.32,3098.81L1181.38,3100.68L1181.56,3099.74L1183.51,3098.81L1184.22,3097.87L1184.58,3098.81L1184.93,3097.87L1186.17,3096.93L1198.96,3097.87L1200.2,3098.81L1202.15,3097.87L1202.68,3096.93L1203.22,3097.87L1207.65,3098.81L1208.9,3099.74L1209.25,3099.74L1210.67,3104.43L1211.56,3105.37L1212.8,3106.31L1213.33,3107.24L1214.93,3110.06L1215.47,3110.99L1217.42,3115.68L1218.66,3114.74L1220.44,3115.68L1221.86,3117.56L1222.57,3116.62L1222.92,3117.56L1224.7,3116.62L1225.94,3115.68L1230.02,3114.74L1231.26,3111.93L1231.44,3112.87L1235.7,3111.93L1235.88,3110.99L1236.06,3111.93L1236.59,3112.87L1237.12,3111.93L1238.19,3110.99L1238.37,3110.06L1239.25,3110.99L1247.42,3110.06L1249.02,3107.24L1250.44,3106.31L1250.97,3104.43L1251.5,3106.31L1252.74,3105.37L1253.45,3103.49L1253.81,3105.37L1256.29,3104.43L1257.72,3102.56L1258.78,3103.49L1259.85,3104.43L1261.44,3101.62L1267.48,3100.68L1268.72,3099.74L1272.09,3100.68L1273.34,3101.62L1279.2,3100.68L1280.62,3098.81L1281.68,3099.74L1282.75,3098.81L1282.92,3099.74L1283.81,3098.81L1290.02,3097.87L1291.44,3095.99L1292.33,3095.06L1293.75,3093.18L1296.24,3100.68L1297.12,3101.62L1298.55,3103.49L1302.63,3102.56L1303.87,3101.62L1305.29,3100.68L1306.53,3099.74L1312.57,3098.81L1313.99,3096.93L1329.43,3097.87L1330.85,3101.62L1331.03,3100.68L1332.1,3099.74L1333.69,3102.56L1337.24,3103.49L1337.6,3104.43L1338.31,3103.49L1340.44,3102.56L1341.86,3100.68L1343.81,3099.74L1345.06,3098.81L1351.09,3097.87L1351.98,3095.99L1352.33,3096.93L1361.39,3097.87L1361.57,3098.81L1362.45,3097.87L1364.76,3096.93L1366,3095.99L1371.68,3096.93L1373.1,3098.81L1373.81,3097.87L1375.06,3096.93L1379.32,3095.99L1379.49,3095.06L1380.38,3095.99L1381.8,3096.93L1381.98,3097.87L1382.34,3096.93L1383.58,3095.99L1396.18,3096.93L1398.31,3102.56L1399.91,3099.74L1403.64,3100.68L1404.35,3101.62L1404.7,3100.68L1406.66,3099.74L1406.83,3098.81L1407.72,3099.74L1411.63,3098.81L1411.98,3097.87L1412.69,3098.81L1418.37,3097.87L1419.79,3095.99L1420.86,3095.06L1421.57,3094.12L1421.92,3095.06L1422.1,3095.99L1422.45,3095.06L1423.88,3093.18L1424.59,3094.12L1424.94,3095.06L1425.3,3094.12L1425.47,3093.18L1426.18,3094.12L1426.54,3095.06L1427.25,3094.12L1429.2,3094.12L1431.15,3196.31L1435.95,3294.74L1444.11,3407.24L1454.05,3500.99L1456.54,3519.74L1460.27,3547.87L1466.13,3584.43L1468.79,3601.31L1469.14,3602.24L1483.52,3672.56L1483.88,3673.49L1487.96,3689.43L1488.32,3690.37L1491.16,3699.74L1491.51,3700.68L1494,3708.18L1494.35,3709.12L1496.84,3716.62L1497.55,3717.56L1499.85,3724.12L1500.56,3725.06L1502.69,3730.68L1503.05,3731.62L1505,3736.31L1505.53,3737.24L1507.13,3740.06L1507.49,3740.99L1509.44,3745.68L1510.15,3746.62L1511.93,3750.37L1513.17,3751.31L1514.77,3754.12L1517.25,3755.06L1518.85,3757.87L1519.74,3758.81L1521.16,3760.68L1522.58,3761.62L1524,3763.49L1526.13,3766.31L1526.84,3767.24L1527.19,3768.18L1527.9,3767.24L1528.79,3768.18L1530.21,3770.06L1534.65,3770.99L1535.89,3771.93L1538.2,3772.87L1539.44,3774.74L1539.8,3773.81L1540.51,3774.74L1541.75,3775.68L1544.94,3776.62L1546.19,3777.56L1551.69,3776.62L1552.58,3775.68L1552.76,3776.62L1567.67,3775.68L1569.09,3773.81L1569.98,3774.74L1570.15,3773.81L1572.46,3772.87L1573.88,3770.99L1577.61,3770.06L1578.85,3769.12L1582.05,3768.18L1583.64,3765.37L1585.95,3764.43L1587.19,3763.49L1589.86,3762.56L1591.46,3759.74L1594.65,3758.81L1595.89,3757.87L1596.07,3758.81L1596.43,3757.87L1598.91,3755.99L1599.09,3755.06L1599.27,3755.99L1599.62,3756.93L1600.33,3755.99L1602.11,3755.06L1603.53,3753.18L1605.3,3752.24L1606.19,3751.31L1607.43,3678.18L1608.5,3679.12L1608.67,3680.06L1609.56,3679.12L1622.17,3680.06L1622.34,3680.99L1623.23,3680.06L1631.4,3680.99L1631.75,3681.93L1632.46,3680.99L1633.17,3680.06L1634.24,3679.12L1635.48,3680.06L1637.97,3679.12L1639.21,3678.18L1646.49,3677.24L1647.91,3675.37L1661.4,3676.31L1662.11,3677.24L1662.46,3676.31L1666.9,3677.24L1668.32,3679.12L1669.56,3678.18L1670.98,3679.12L1671.16,3680.06L1672.05,3679.12L1673.47,3680.06L1674.54,3680.99L1675.78,3680.06L1677.02,3680.99L1679.51,3681.93L1680.75,3682.87L1681.99,3681.93L1685.01,3680.99L1686.25,3680.06L1688.03,3679.12L1688.38,3678.18L1688.74,3679.12L1688.91,3680.06L1689.27,3679.12L1689.62,3678.18L1690.33,3679.12L1695.48,3679.12L1697.44,3545.06L1703.65,3382.87L1712.17,3226.31L1715.19,3183.18L1720.16,3121.31L1721.4,3109.12L1726.02,3071.62L1731.16,3050.06L1731.34,3050.06L1732.76,3045.37L1733.12,3044.43L1734.71,3041.62L1736.13,3040.68L1737.91,3036.93L1738.27,3035.99L1740.4,3030.37L1741.11,3029.43L1742.53,3027.56L1747.32,3026.62L1748.92,3023.81L1749.27,3022.87L1750.69,3020.99L1751.58,3020.06L1753.35,3016.31L1753.89,3017.24L1754.42,3018.18L1754.95,3017.24L1755.84,3016.31L1757.26,3014.43L1757.79,3013.49L1759.57,3009.74L1759.92,3008.81L1762.05,3003.18L1762.41,3002.24L1764.01,2999.43L1764.54,2998.49L1767.56,2988.18L1769.15,2987.24L1771.46,2980.68L1774.66,2979.74L1775.9,2974.12L1776.43,2975.99L1777.5,2975.06L1779.45,2968.49L1779.63,2969.43L1780.52,2968.49L1782.11,2965.68L1782.47,2964.74L1792.23,2908.49L1792.41,2902.87L1792.59,2844.74L1793.12,1570.68L1793.83,2039.43L1795.78,2994.74L1797.91,3016.31L1803.42,3086.62L1804.48,3097.87L1808.74,3131.62L1812.65,3146.62L1813.18,3147.56L1815.13,3152.24L1815.49,3153.18L1817.62,3158.81L1818.15,3159.74L1819.92,3163.49L1820.99,3162.56L1822.41,3164.43L1828.62,3163.49L1830.04,3161.62L1832.71,3160.68L1834.13,3158.81L1836.26,3155.99L1836.43,3156.93L1836.97,3155.99L1838.56,3153.18L1841.58,3152.24L1842.83,3151.31L1844.25,3150.37L1845.84,3147.56L1847.8,3146.62L1849.57,3142.87L1855.96,3141.93L1857.38,3140.06L1858.27,3139.12L1859.69,3135.37L1859.87,3136.31L1860.4,3135.37L1860.58,3134.43L1861.46,3135.37L1862.89,3134.43L1863.6,3133.49L1863.95,3134.43L1867.32,3133.49L1868.74,3131.62L1870.34,3130.68L1871.76,3128.81L1874.78,3127.87L1876.38,3125.06L1880.64,3124.12L1882.06,3122.24L1883.66,3121.31L1885.43,3117.56L1886.5,3116.62L1887.92,3114.74L1889.69,3113.81L1890.58,3111.93L1890.93,3112.87L1891.82,3111.93L1893.24,3110.06L1896.44,3109.12L1897.68,3108.18L1898.74,3107.24L1900.52,3103.49L1901.58,3104.43L1902.65,3103.49L1903.71,3104.43L1905.14,3102.56L1910.28,3101.62L1910.46,3100.68L1910.99,3101.62L1911.7,3102.56L1912.06,3101.62L1912.77,3102.56L1915.08,3109.12L1915.61,3108.18L1915.79,3109.12L1917.38,3111.93L1919.16,3112.87L1920.76,3115.68L1924.84,3114.74L1925.02,3113.81L1925.91,3114.74L1926.79,3113.81L1928.39,3110.99L1929.99,3110.06L1931.59,3107.24L1932.83,3106.31L1934.6,3102.56L1936.73,3099.74L1937.98,3100.68L1939.4,3099.74L1940.82,3097.87L1941.53,3096.93L1942.24,3095.06L1942.77,3095.99L1947.39,3095.06L1948.98,3091.31L1949.52,3092.24L1950.05,3091.31L1951.29,3090.37L1952.71,3088.49L1953.42,3087.56L1955.02,3084.74L1956.79,3083.81L1958.04,3082.87L1959.81,3081.93L1961.23,3080.06L1965.14,3079.12L1965.85,3078.18L1966.2,3079.12L1967.62,3078.18L1969.04,3076.31L1969.75,3075.37L1971.53,3071.62L1974.37,3070.68L1975.79,3068.81L1982.71,3069.74L1983.42,3071.62L1983.95,3070.68L1986.62,3071.62L1987.33,3072.56L1987.68,3071.62L1992.65,3070.68L1993.72,3068.81L1993.9,3069.74L1994.61,3068.81L1996.03,3066.93L1996.91,3067.87L1997.98,3068.81L1998.51,3067.87L1998.69,3068.81L2000.11,3071.62L2001.35,3070.68L2002.59,3071.62L2004.9,3070.68L2005.61,3069.74L2005.97,3070.68L2008.27,3071.62L2009.87,3074.43L2012.71,3075.37L2014.13,3077.24L2015.02,3078.18L2016.62,3080.99L2022.48,3080.06L2022.65,3079.12L2023.54,3080.06L2026.03,3080.99L2026.2,3081.93L2027.09,3080.99L2029.93,3080.06L2031.35,3078.18L2031.89,3077.24L2033.66,3073.49L2034.9,3072.56L2036.15,3071.62L2039.87,3070.68L2041.29,3068.81L2043.07,3067.87L2044.49,3065.99L2046.62,3065.06L2048.22,3062.24L2048.57,3061.31L2049.99,3059.43L2052.3,3058.49L2053.01,3057.56L2053.37,3058.49L2054.61,3059.43L2056.03,3061.31L2063.31,3060.37L2064.9,3057.56L2066.32,3056.62L2067.74,3054.74L2069.87,3053.81L2070.94,3052.87L2071.3,3053.81L2071.65,3052.87L2073.07,3050.99L2073.96,3050.06L2074.14,3049.12L2074.49,3050.06L2075.91,3051.93L2076.98,3052.87L2077.86,3053.81L2078.04,3052.87L2078.57,3051.93L2078.93,3050.99L2079.28,3051.93L2079.82,3052.87L2080.17,3051.93L2080.7,3050.99L2081.24,3051.93L2083.01,3055.68L2086.74,3054.74L2087.09,3053.81L2087.45,3054.74L2088.16,3055.68L2088.51,3054.74L2093.66,3053.81L2095.62,3049.12L2096.33,3048.18L2096.5,3047.24L2097.39,3048.18L2098.81,3047.24L2100.05,3046.31L2102.18,3045.37L2103.6,3043.49L2105.02,3044.43L2105.38,3045.37L2105.73,3044.43L2106.62,3043.49L2106.8,3044.43L2108.4,3043.49L2109.82,3041.62L2112.12,3042.56L2112.83,3043.49L2113.19,3042.56L2114.97,3043.49L2115.14,3044.43L2116.03,3043.49L2117.1,3042.56L2119.05,3037.87L2119.76,3036.93L2121,3034.12L2121.18,3035.06L2122.78,3034.12L2124.37,3031.31L2124.55,3032.24L2125.44,3031.31L2127.92,3030.37L2128.46,3029.43L2128.99,3030.37L2129.17,3031.31L2130.05,3030.37L2136.45,3031.31L2137.69,3032.24L2141.95,3032.24L2143.37,3036.93L2146.92,3035.99L2148.16,3035.06L2150.29,3035.99L2150.47,3036.93L2150.82,3035.99L2151,3035.06L2151.36,3035.99L2152.6,3036.93L2156.33,3037.87L2157.75,3039.74L2160.77,3040.68L2163.07,3047.24L2163.96,3048.18L2165.56,3050.99L2166.98,3049.12L2174.08,3048.18L2174.26,3047.24L2175.14,3048.18L2175.68,3047.24L2177.28,3044.43L2180.65,3043.49L2182.07,3041.62L2182.6,3041.62L2184.02,3037.87L2184.55,3036.93L2185.44,3034.12L2185.97,3035.06L2191.83,3034.12L2193.25,3032.24L2193.78,3031.31L2195.2,3029.43L2196.27,3028.49L2197.87,3025.68L2198.93,3024.74L2200.35,3022.87L2201.6,3021.93L2203.9,3015.37L2205.5,3014.43L2206.21,3012.56L2206.74,3013.49L2208.52,3017.24L2209.23,3016.31L2209.94,3015.37L2210.29,3016.31L2211.18,3017.24L2211.36,3018.18L2212.07,3017.24L2212.25,3016.31L2212.6,3017.24L2214.2,3020.06L2215.62,3020.99L2215.97,3021.93L2216.68,3020.99L2218.11,3020.06L2219.35,3019.12L2219.88,3020.06L2220.06,3020.99L2220.41,3020.06L2221.48,3019.12L2222.9,3020.99L2226.27,3020.06L2227.51,3019.12L2228.4,3018.18L2231.24,3008.81L2233.73,3009.74L2234.08,3010.68L2234.44,3009.74L2236.21,3005.99L2239.41,3006.93L2239.76,3007.87L2240.3,3006.93L2241.54,3005.06L2242.78,3006.93L2244.73,3002.24L2245.98,3001.31L2246.15,3000.37L2247.04,3001.31L2248.11,3003.18L2248.28,3002.24L2250.24,3001.31L2250.77,3000.37L2251.3,3001.31L2254.32,3000.37L2255.56,2999.43L2255.92,2998.49L2257.34,2996.62L2258.76,2995.68L2259.29,2993.81L2259.82,2994.74L2260.71,2995.68L2260.89,2994.74L2261.78,2993.81L2263.37,2990.99L2264.08,2990.06L2265.68,2987.24L2267.63,2988.18L2267.81,2989.12L2268.34,2988.18L2269.76,2986.31L2270.65,2988.18L2270.83,2987.24L2272.07,2986.31L2274.56,2987.24L2275.8,2988.18L2281.48,2987.24L2284.68,2975.99L2285.21,2975.06L2286.98,2971.31L2287.52,2970.37L2292.84,2947.87L2293.73,2946.93L2294.97,2936.62L2295.5,2924.43L2295.68,2889.74L2296.39,1560.37L2297.1,2182.87L2298.88,2984.43L2299.59,2991.93L2300.12,2990.06L2301.01,2989.12L2301.9,2987.24L2302.07,2988.18L2305.09,3009.74L2310.77,3058.49L2311.13,3059.43L2313.61,3074.43L2321.24,3109.12L2322.13,3110.06L2324.09,3114.74L2324.8,3115.68L2326.57,3119.43L2326.93,3120.37L2328.7,3124.12L2328.88,3123.18L2329.06,3124.12L2330.3,3125.06L2330.65,3125.99L2332.25,3128.81L2333.32,3129.74L2334.74,3131.62L2336.69,3132.56L2337.93,3133.49L2339,3134.43L2340.59,3137.24L2340.77,3136.31L2341.48,3137.24L2343.26,3140.99L2347.34,3140.06L2348.76,3138.18L2349.47,3140.06L2350,3139.12L2351.25,3138.18L2353.02,3137.24L2354.44,3135.37L2356.22,3134.43L2357.99,3130.68L2359.23,3129.74L2360.48,3128.81L2361.54,3127.87L2362.96,3125.99L2364.92,3125.06L2365.8,3123.18L2366.16,3124.12L2367.05,3123.18L2368.29,3122.24L2369,3121.31L2370.06,3120.37L2370.24,3121.31L2370.77,3120.37L2372.19,3118.49L2372.9,3118.49L2374.15,3115.68L2374.68,3114.74L2376.1,3112.87L2378.76,3111.93L2380,3110.99L2383.38,3110.06L2384.62,3109.12L2387.99,3108.18L2389.24,3107.24L2392.25,3106.31L2393.67,3104.43L2397.76,3103.49L2399.18,3101.62L2400.6,3100.68L2402.02,3098.81L2402.55,3097.87L2403.79,3096.93L2405.57,3097.87L2407.52,3228.18L2411.07,3320.99L2416.57,3413.81L2432.91,3575.06L2436.81,3601.31L2439.3,3616.31L2451.19,3673.49L2451.72,3674.43L2455.63,3689.43L2455.98,3690.37L2459.36,3702.56L2459.71,3703.49L2462.02,3710.06L2462.73,3710.99L2465.04,3717.56L2465.39,3718.49L2467.52,3724.12L2468.05,3725.06L2469.65,3730.68L2469.83,3729.74L2470.19,3730.68L2472.32,3736.31L2473.38,3737.24L2475.16,3740.99L2475.51,3741.93L2477.29,3745.68L2478,3746.62L2479.59,3749.43L2481.01,3750.37L2482.61,3753.18L2483.32,3754.12L2484.74,3755.99L2486.69,3756.93L2488.11,3758.81L2488.65,3759.74L2490.07,3761.62L2491.31,3762.56L2492.73,3764.43L2495.93,3765.37L2497.17,3766.31L2498.23,3767.24L2498.41,3768.18L2499.3,3767.24L2501.43,3768.18L2502.67,3769.12L2505.51,3770.06L2505.69,3770.99L2506.4,3770.06L2506.75,3769.12L2507.46,3770.06L2511.9,3770.99L2512.08,3771.93L2512.97,3770.99L2514.21,3770.06L2519.71,3769.12L2519.89,3768.18L2520.78,3769.12L2523.09,3768.18L2524.51,3766.31L2532.67,3765.37L2533.74,3764.43L2534.98,3765.37L2537.64,3764.43L2539.06,3762.56L2543.86,3761.62L2544.39,3759.74L2544.92,3761.62L2546.87,3760.68L2547.05,3759.74L2547.58,3760.68L2547.76,3761.62L2548.12,3760.68L2549.36,3759.74L2549.71,3760.68L2550.42,3759.74L2552.38,3758.81L2553.62,3757.87L2556.11,3756.93L2557.35,3755.99L2558.95,3755.06L2559.83,3754.12L2560.01,3755.06L2562.32,3754.12L2563.74,3752.24L2566.22,3751.31L2566.4,3750.37L2567.29,3751.31L2568.35,3750.37L2569.6,3749.43L2570.13,3748.49L2571.55,3746.62L2574.39,3745.68L2575.63,3744.74L2579.89,3743.81L2581.31,3741.93L2581.49,3742.87L2582.38,3741.93L2582.56,3741.93L2583.8,3687.56L2597.82,3688.49L2598.18,3689.43L2598.89,3688.49L2604.39,3687.56L2604.75,3685.68L2605.46,3687.56L2617.35,3688.49L2617.88,3689.43L2618.24,3688.49L2618.42,3687.56L2619.3,3688.49L2630.49,3687.56L2630.84,3686.62L2631.55,3687.56L2637.23,3688.49L2637.41,3689.43L2638.3,3688.49L2647.53,3689.43L2648.06,3690.37L2648.59,3689.43L2650.01,3690.37L2651.26,3691.31L2671.85,3691.31L2673.8,3491.62L2677.71,3324.74L2688.36,3021.93L2694.22,2920.68L2698.12,2869.12L2699.01,2845.68L2699.37,2129.43L2699.72,1556.62L2700.25,1955.06L2702.21,2989.12L2702.74,2995.68L2703.27,2991.93L2705.05,2984.43L2707,2989.12L2707.35,2990.06L2709.48,2995.68L2709.66,2994.74L2709.84,2995.68L2711.61,2999.43L2712.5,3000.37L2713.39,3002.24L2713.74,3001.31L2714.81,3002.24L2716.05,3004.12L2717.47,3002.24L2718.89,3002.24L2720.14,3004.12L2720.49,3005.99L2721.38,3005.06L2722.8,3003.18L2724.4,3004.12L2725.11,3005.99L2725.64,3005.06L2727.41,3001.31L2727.59,3002.24L2728.48,3001.31L2729.72,3000.37L2730.43,2999.43L2732.56,2993.81L2733.8,2992.87L2736.82,2982.56L2737,2983.49L2737.89,2982.56L2738.6,2982.56L2740.02,2978.81L2742.68,2970.37L2743.39,2969.43L2745.7,2962.87L2746.05,2961.93L2747.47,2960.06L2748.01,2960.99L2749.78,2964.74L2750.49,2965.68L2752.09,2968.49L2753.51,2969.43L2754.22,2970.37L2754.4,2969.43L2756.53,2963.81L2757.59,2962.87L2760.25,2954.43L2760.61,2953.49L2762.56,2948.81L2763.45,2949.74L2763.98,2950.68L2764.16,2949.74L2765.76,2946.93L2766.29,2947.87L2767.18,2948.81L2767.36,2947.87L2768.6,2946.93L2770.55,2942.24L2772.15,2941.31L2774.99,2930.99L2775.52,2931.93L2775.88,2930.99L2778.01,2925.37L2778.36,2924.43L2778.54,2923.49L2779.07,2924.43L2779.25,2925.37L2779.43,2924.43L2783.69,2907.56L2783.87,2908.49L2784.04,2907.56L2789.55,2872.87L2791.85,2840.99L2792.56,1527.56L2793.45,2238.18L2795.23,2958.18L2797,2972.24L2801.97,3004.12L2804.64,3020.99L2804.99,3021.93L2809.25,3039.74L2809.61,3038.81L2809.78,3039.74L2811.56,3043.49L2812.45,3044.43L2813.87,3046.31L2814.22,3047.24L2815.46,3048.18L2818.3,3047.24L2819.9,3044.43L2821.85,3043.49L2824.16,3036.93L2827.71,3035.99L2828.78,3035.06L2828.96,3035.99L2829.84,3035.06L2830.55,3034.12L2830.73,3033.18L2831.26,3034.12L2832.51,3035.06L2833.75,3032.24L2833.93,3033.18L2835.52,3032.24L2836.77,3031.31L2839.43,3030.37L2840.49,3028.49L2840.67,3029.43L2844.04,3028.49L2845.29,3027.56L2847.42,3026.62L2848.84,3024.74L2849.19,3023.81L2850.44,3022.87L2854.16,3021.93L2855.76,3019.12L2859.13,3018.18L2860.55,3016.31L2864.1,3015.37L2865.7,3012.56L2866.24,3011.62L2868.01,3007.87L2868.37,3006.93L2869.96,3004.12L2871.03,3003.18L2873.51,2995.68L2875.64,2994.74L2877.06,2992.87L2877.42,2991.93L2879.55,2986.31L2880.08,2985.37L2881.32,2984.43L2881.86,2983.49L2883.99,2977.87L2884.16,2978.81L2884.7,2977.87L2886.3,2975.06L2887.01,2974.12L2888.07,2972.24L2888.25,2973.18L2889.14,2972.24L2891.09,2967.56L2892.51,2969.43L2893.4,2968.49L2893.75,2967.56L2894.28,2968.49L2895.53,2969.43L2895.88,2968.49L2897.12,2967.56L2904.05,2966.62L2905.11,2964.74L2905.29,2965.68L2907.07,2964.74L2910.44,2952.56L2913.46,2951.62L2915.05,2947.87L2915.94,2950.68L2916.47,2949.74L2918.6,2944.12L2918.96,2943.18L2920.38,2941.31L2922.15,2945.06L2923.4,2945.99L2924.82,2947.87L2926.95,2946.93L2929.61,2938.49L2931.56,2937.56L2935.47,2922.56L2935.65,2923.49L2935.82,2922.56L2937.07,2921.62L2937.42,2922.56L2937.78,2921.62L2939.02,2920.68L2939.37,2919.74L2940.97,2916.93L2941.68,2915.99L2942.75,2914.12L2942.92,2915.06L2943.28,2914.12L2944.88,2911.31L2945.23,2910.37L2954.46,2857.87L2954.82,2828.81L2955.53,1531.31L2956.24,2103.18L2958.01,2945.06L2959.43,2958.18L2961.21,2961.93L2961.56,2962.87L2970.44,3004.12L2970.8,3004.12L2972.57,3011.62L2973.1,3012.56L2975.41,3019.12L2975.77,3020.06L2977.36,3022.87L2978.43,3023.81L2979.85,3025.68L2981.09,3024.74L2983.04,3025.68L2984.64,3028.49L2985.35,3029.43L2986.59,3030.37L2988.01,3031.31L2989.08,3032.24L2990.5,3030.37L2992.99,3029.43L2994.76,3025.68L2995.47,3024.74L2996.89,3022.87L2997.6,3021.93L2999.02,3020.06L2999.91,3019.12L3001.86,3014.43L3003.81,3013.49L3003.99,3012.56L3004.88,3013.49L3006.83,3018.18L3012.51,3017.24L3014.29,3013.49L3016.6,3012.56L3018.9,3005.99L3020.15,3005.06L3021.39,3002.24L3021.57,3003.18L3022.28,3002.24L3024.58,2995.68L3025.47,2994.74L3026.71,2992.87L3026.89,2993.81L3027.25,2992.87L3030.09,2983.49L3031.15,2982.56L3033.64,2975.06L3034.17,2974.12L3034.53,2973.18L3035.24,2974.12L3040.74,2973.18L3042.16,2971.31L3042.51,2970.37L3043.58,2968.49L3043.76,2969.43L3044.11,2970.37L3044.47,2969.43L3045.71,2968.49L3047.66,2967.56L3049.08,2965.68L3049.79,2966.62L3050.15,2965.68L3052.28,2964.74L3054.23,2960.06L3054.41,2960.99L3054.76,2960.06L3056.01,2958.18L3056.89,2959.12L3057.07,2958.18L3058.49,2956.31L3061.69,2957.24L3062.93,2958.18L3065.24,2959.12L3066.83,2961.93L3068.08,2960.99L3069.32,2961.93L3071.09,2957.24L3071.98,2959.12L3072.34,2958.18L3073.05,2957.24L3075,2952.56L3075.71,2951.62L3077.66,2946.93L3078.37,2945.99L3079.97,2943.18L3081.04,2942.24L3082.63,2939.43L3084.05,2938.49L3085.83,2934.74L3086.89,2933.81L3088.85,2929.12L3091.51,2928.18L3092.4,2925.37L3092.93,2926.31L3093.64,2926.31L3094.7,2922.56L3094.88,2923.49L3095.59,2923.49L3097.37,2915.06L3097.9,2915.99L3098.08,2915.06L3099.5,2910.37L3100.74,2909.43L3102.87,2903.81L3103.4,2902.87L3109.79,2864.43L3111.57,2829.74L3112.28,1535.99L3113.17,2240.99L3114.94,2946.93L3115.83,2954.43L3116.19,2952.56L3116.72,2951.62L3118.32,2948.81L3120.98,2949.74L3127.72,2979.74L3128.26,2980.68L3130.21,2985.37L3130.92,2986.31L3132.87,2996.62L3133.58,2997.56L3135.18,3000.37L3138.38,2999.43L3139.44,2998.49L3140.68,2999.43L3141.75,3000.37L3143.17,3002.24L3144.41,3001.31L3145.83,3002.24L3147.07,3003.18L3148.49,3001.31L3149.03,3000.37L3149.38,2999.43L3150.09,3000.37L3152.93,3001.31L3154.17,3002.24L3157.19,3001.31L3158.61,2999.43L3162.34,2998.49L3163.76,2996.62L3164.47,2995.68L3166.25,2991.93L3166.6,2990.99L3168.55,2986.31L3168.91,2985.37L3170.51,2982.56L3172.81,2981.62L3174.06,2980.68L3177.07,2979.74L3178.85,2975.99L3179.56,2975.06L3181.34,2971.31L3183.64,2970.37L3185.06,2968.49L3185.6,2967.56L3187.02,2965.68L3188.61,2964.74L3188.79,2963.81L3189.68,2964.74L3192.16,2963.81L3192.52,2962.87L3192.7,2963.81L3192.87,2964.74L3193.05,2963.81L3194.83,2960.06L3197.49,2959.12L3198.73,2958.18L3198.91,2959.12L3199.8,2958.18L3200.86,2957.24L3202.99,2951.62L3203.88,2950.68L3205.12,2947.87L3205.3,2948.81L3206.54,2947.87L3208.5,2943.18L3209.38,2942.24L3211.16,2938.49L3213.29,2937.56L3214.71,2934.74L3214.89,2935.68L3215.77,2934.74L3217.02,2932.87L3224.12,2964.74L3226.43,2963.81L3226.6,2962.87L3227.31,2963.81L3227.49,2964.74L3227.85,2963.81L3229.09,2962.87L3230.51,2961.93L3231.75,2960.06L3233.17,2961.93L3236.54,2960.99L3237.79,2960.06L3238.32,2959.12L3241.87,2945.06L3242.05,2945.99L3242.4,2945.06L3244.71,2938.49L3245.07,2937.56L3246.84,2930.06L3250.21,2917.87L3250.92,2916.93L3252.88,2907.56L3254.12,2907.56L3255.72,2900.99L3256.25,2900.06L3260.15,2847.56L3260.51,2216.62L3260.86,1548.18L3261.57,1991.62L3263.53,2924.43L3264.42,2932.87L3264.77,2930.99L3265.3,2930.06L3265.66,2930.99L3267.79,2936.62L3269.03,2937.56L3270.63,2940.37L3271.34,2941.31L3275.78,2959.12L3276.31,2960.06L3278.08,2963.81L3278.62,2964.74L3280.04,2966.62L3281.46,2967.56L3282.88,2969.43L3283.59,2970.37L3285.19,2973.18L3286.96,2974.12L3288.56,2976.93L3288.91,2975.99L3291.04,2978.81L3292.11,2979.74L3294.42,2986.31L3294.77,2987.24L3296.01,2988.18L3301.87,2987.24L3303.11,2985.37L3303.47,2986.31L3304.18,2985.37L3304.71,2984.43L3305.96,2981.62L3306.13,2982.56L3307.38,2981.62L3307.55,2980.68L3307.73,2981.62L3308.62,2983.49L3308.97,2982.56L3309.51,2981.62L3310.75,2980.68L3313.41,2981.62L3314.83,2983.49L3315.54,2982.56L3315.9,2983.49L3324.24,2982.56L3325.66,2980.68L3326.55,2979.74L3327.97,2977.87L3329.74,2976.93L3331.52,2973.18L3332.05,2972.24L3333.47,2967.56L3334.18,2966.62L3335.96,2962.87L3336.31,2961.93L3337.73,2960.06L3338.62,2959.12L3340.22,2956.31L3341.1,2955.37L3341.99,2954.43L3342.17,2955.37L3345.19,2954.43L3345.72,2953.49L3346.25,2954.43L3347.14,2953.49L3349.09,2948.81L3351.76,2947.87L3354.24,2940.37L3355.13,2940.37L3356.55,2934.74L3357.97,2936.62L3361.34,2935.68L3362.58,2934.74L3363.47,2933.81L3365.07,2930.99L3365.42,2930.06L3367.2,2926.31L3368.44,2927.24L3370.22,2926.31L3371.28,2921.62L3371.82,2923.49L3372.7,2926.31L3373.06,2924.43L3373.95,2923.49L3376.08,2917.87L3376.43,2918.81L3376.79,2917.87L3377.85,2916.93L3378.74,2917.87L3378.92,2916.93L3379.27,2916.93L3380.69,2912.24L3381.93,2912.24L3383.89,3117.56L3387.79,3268.49L3392.05,3368.81L3397.56,3461.62L3402.35,3520.68L3410.16,3591.93L3413.18,3613.49L3415.31,3624.74L3424.89,3669.74L3425.25,3670.68L3429.51,3687.56L3429.87,3688.49L3435.01,3710.06L3435.37,3710.99L3438.39,3721.31L3439.1,3722.24L3441.4,3728.81L3441.94,3729.74L3443.89,3734.43L3445.13,3735.37L3447.08,3740.06L3447.79,3740.99L3449.57,3745.68L3449.93,3744.74L3451.35,3748.49L3453.12,3752.24L3454.01,3753.18L3455.43,3755.06L3455.96,3755.99L3457.74,3759.74L3459.16,3760.68L3460.58,3763.49L3460.75,3762.56L3461.11,3763.49L3462.71,3766.31L3464.48,3767.24L3465.9,3769.12L3467.85,3770.06L3468.92,3770.99L3469.98,3770.06L3470.52,3770.99L3471.05,3770.06L3474.07,3769.12L3474.96,3768.18L3475.13,3769.12L3490.04,3768.18L3491.46,3766.31L3493.24,3765.37L3494.84,3762.56L3496.97,3759.74L3498.92,3758.81L3500.34,3756.93L3501.41,3757.87L3502.65,3756.93L3510.64,3755.99L3510.81,3755.06L3510.99,3755.99L3511.7,3756.93L3512.06,3755.99L3515.96,3755.06L3516.5,3754.12L3517.03,3755.06L3523.06,3754.12L3523.42,3753.18L3524.13,3754.12L3525.37,3753.18L3526.26,3752.24L3526.44,3753.18L3528.21,3752.24L3529.45,3751.31L3533.18,3750.37L3533.36,3749.43L3534.25,3750.37L3535.85,3749.43L3537.09,3748.49L3543.3,3747.56L3543.48,3746.62L3544.37,3747.56L3545.43,3746.62L3546.67,3745.68L3548.45,3744.74L3549.69,3742.87L3550.05,3743.81L3550.58,3742.87L3551.82,3741.93L3553.95,3740.99L3554.13,3740.06L3555.02,3740.99L3558.39,3740.06L3559.81,3738.18L3569.04,3739.12L3569.4,3740.06L3570.11,3739.12L3588.04,3740.06L3588.21,3740.99L3589.1,3740.06L3604.55,3740.99L3605.61,3741.93L3606.68,3740.99L3607.03,3741.93L3607.56,3740.99L3608.63,3740.06L3608.81,3740.99L3609.69,3740.06L3617.68,3740.99L3618.93,3741.93L3625.49,3740.99L3625.67,3740.06L3626.56,3740.99L3628.69,3740.06L3629.04,3739.12L3629.4,3740.06L3629.75,3740.99L3630.46,3740.06L3631,3739.12L3631.35,3740.06L3632.06,3740.99L3632.42,3740.06L3643.42,3739.12L3644.67,3738.18L3644.84,3739.12L3645.2,3738.18L3646.44,3737.24L3648.22,3736.31L3650.17,3343.49L3655.14,2933.81L3656.56,2752.87L3657.09,1504.12L3657.8,2128.49L3659.4,2888.81L3660.11,2873.81L3664.9,2735.99L3666.5,2690.06L3667.21,1532.24L3668.1,2115.37L3669.87,2810.06L3671.47,2832.56L3673.6,2838.18L3675.2,2839.12L3676.44,2842.87L3677.68,2841.93L3678.22,2840.99L3681.59,2828.81L3682.3,2827.87L3687.8,2793.18L3691.18,2746.31L3692.6,2680.68L3693.31,1494.74L3694.02,1965.37L3696.15,2819.43L3697.92,2845.68L3700.59,2855.06L3700.94,2854.12L3701.65,2855.06L3704.31,2854.12L3707.33,2843.81L3708.75,2842.87L3710.88,2835.37L3711.06,2836.31L3712.12,2835.37L3713.72,2830.68L3713.9,2831.62L3714.61,2830.68L3716.21,2827.87L3716.56,2826.93L3719.58,2816.62L3720.47,2815.68L3722.24,2811.93L3722.42,2811.93L3724.02,2806.31L3725.08,2805.37L3728.28,2794.12L3729.17,2793.18L3737.15,2756.62L3737.51,2755.68L3740.7,2721.93L3740.88,2704.12L3741.59,1482.56L3742.48,2078.81L3744.26,2798.81L3746.03,2830.68L3747.63,2833.49L3747.81,2832.56L3748.16,2833.49L3749.58,2837.24L3749.76,2836.31L3752.07,2837.24L3752.24,2838.18L3753.13,2837.24L3753.49,2836.31L3754.2,2837.24L3754.91,2838.18L3755.08,2839.12L3755.26,2838.18L3757.75,2830.68L3758.28,2829.74L3760.76,2821.31L3762.01,2822.24L3764.14,2816.62L3764.49,2815.68L3770.71,2788.49L3771.77,2791.31L3771.95,2790.37L3776.03,2774.43L3776.74,2774.43L3778.34,2768.81L3778.87,2770.68L3779.4,2768.81L3780.82,2767.87L3788.81,2720.99L3789.52,2700.37L3789.88,2252.24L3790.41,1495.68L3790.94,1809.74L3793.25,2791.31L3795.03,2817.56L3797.33,2824.12L3798.58,2823.18L3799.82,2824.12L3802.66,2825.06L3802.84,2825.99L3803.37,2825.06L3804.26,2823.18L3804.43,2824.12L3804.79,2825.06L3804.97,2826.93L3805.86,2825.99L3807.81,2821.31L3807.99,2822.24L3808.34,2821.31L3810.47,2814.74L3810.83,2815.68L3811.18,2814.74L3817.04,2789.43L3817.57,2788.49L3819.35,2780.06L3820.59,2780.99L3823.25,2772.56L3823.61,2771.62L3825.03,2766.93L3825.38,2767.87L3825.92,2766.93L3826.98,2764.12L3827.34,2765.06L3828.58,2765.99L3830,2769.74L3830.18,2770.68L3830.71,2769.74L3830.89,2768.81L3831.42,2770.68L3831.95,2769.74L3833.37,2765.99L3833.55,2766.93L3834.61,2765.99L3839.23,2747.24L3839.58,2746.31L3842.07,2731.31L3843.13,2720.06L3843.84,2686.31L3844.55,1490.06L3845.44,2000.06L3847.4,2769.74L3848.99,2792.24L3850.77,2800.68L3851.12,2801.62L3852.9,2805.37L3854.5,2802.56L3855.92,2803.49L3856.27,2804.43L3856.63,2803.49L3858.93,2795.99L3859.11,2796.93L3859.29,2795.99L3861.42,2789.43L3861.6,2790.37L3862.13,2789.43L3862.48,2788.49L3863.19,2789.43L3864.26,2788.49L3866.74,2780.99L3867.81,2781.93L3868.88,2783.81L3869.05,2782.87L3869.59,2781.93L3872.07,2774.43L3872.43,2773.49L3875.98,2759.43L3876.51,2761.31L3876.86,2759.43L3879.35,2751.93L3879.7,2752.87L3880.41,2751.93L3880.95,2750.99L3885.03,2735.06L3886.45,2734.12L3889.82,2711.62L3890.71,2689.12L3891.07,2348.81L3891.6,1497.56L3892.31,1880.99L3894.62,2753.81L3896.21,2778.18L3896.39,2777.24L3896.57,2778.18L3898.17,2783.81L3899.05,2784.74L3900.83,2788.49L3902.25,2789.43L3902.78,2790.37L3903.31,2789.43L3904.91,2786.62L3906.15,2785.68L3908.82,2777.24L3909.17,2776.31L3910.59,2773.49L3912.01,2775.37L3912.55,2774.43L3915.74,2763.18L3916.45,2762.24L3917.87,2760.37L3918.94,2759.43L3921.42,2751.93L3921.95,2750.99L3924.08,2738.81L3924.26,2739.74L3924.44,2738.81L3926.04,2735.99L3927.1,2736.93L3927.99,2738.81L3928.34,2737.87L3929.23,2736.93L3931.01,2733.18L3931.19,2734.12L3932.78,2726.62L3932.96,2727.56L3933.14,2726.62L3934.38,2724.74L3935.8,2712.56L3938.64,2661.93L3939,2295.37L3939.53,1493.81L3940.24,1871.62L3942.55,2760.37L3944.32,2783.81L3945.92,2789.43L3946.27,2790.37L3948.05,2794.12L3948.76,2795.06L3950.18,2796.93L3951.42,2795.99L3953.91,2788.49L3956.04,2789.43L3957.28,2793.18L3957.64,2792.24L3958.88,2793.18L3959.06,2794.12L3959.41,2793.18L3961.19,2789.43L3961.36,2789.43L3962.96,2783.81L3964.74,2780.06L3965.09,2779.12L3966.69,2775.37L3967.04,2776.31L3967.4,2775.37L3969,2770.68L3969.17,2771.62L3969.71,2770.68L3970.95,2766.93L3971.3,2767.87L3973.79,2766.93L3975.57,2762.24L3976.1,2763.18L3976.63,2762.24L3977.16,2761.31L3977.7,2762.24L3978.58,2761.31L3980,2757.56L3980.18,2758.49L3980.54,2759.43L3980.71,2760.37L3981.25,2759.43L3989.06,2712.56L3991.19,2660.06L3991.9,1513.49L3992.96,2069.43L3994.92,2742.56L3996.51,2765.99L3999.89,2778.18L4000.24,2777.24L4000.6,2778.18L4002.37,2781.93L4003.44,2780.99L4005.21,2777.24L4006.45,2776.31L4008.05,2773.49L4008.58,2772.56L4009.29,2771.62L4009.47,2772.56L4011.25,2780.06L4013.02,2776.31L4015.51,2775.37L4017.99,2773.49L4020.12,2767.87L4020.48,2766.93L4022.43,2762.24L4022.79,2761.31L4027.76,2740.68L4027.93,2740.68L4030.42,2717.24L4032.73,2699.43L4035.21,2647.87L4035.57,2191.31L4036.1,1508.81L4036.63,1766.62L4039.12,2729.43L4040.72,2752.87L4041.25,2753.81L4044.09,2763.18L4044.44,2763.18L4044.62,2761.31L4045.51,2762.24L4046.4,2761.31L4046.57,2760.37L4046.75,2761.31L4047.46,2763.18L4047.99,2762.24L4048.35,2760.37L4049.06,2761.31L4050.3,2762.24L4050.83,2761.31L4053.14,2754.74L4054.56,2753.81L4057.94,2741.62L4058.65,2740.68L4060.42,2733.18L4060.95,2732.24L4063.08,2720.99L4065.75,2701.31L4067.7,2691.93L4071.6,2665.68L4072.67,2636.62L4073.02,2283.18L4073.56,1515.37L4074.27,1820.99L4076.75,2714.43L4078.53,2747.24L4083.32,2766.93L4083.85,2767.87L4085.27,2769.74L4086.52,2770.68L4086.87,2771.62L4087.58,2770.68L4090.78,2759.43L4091.31,2758.49L4092.73,2756.62L4093.44,2756.62L4094.5,2751.93L4094.86,2752.87L4097.34,2745.37L4098.41,2746.31L4104.45,2720.06L4105.16,2719.12L4109.24,2702.24L4110.13,2704.12L4110.3,2703.18L4112.79,2684.43L4114.56,2645.99L4114.92,2586.93L4115.63,1518.18L4116.34,1818.18L4118.83,2706.93L4120.6,2742.56L4124.33,2756.62L4124.68,2757.56L4126.28,2760.37L4130.72,2759.43L4131.96,2758.49L4133.03,2757.56L4135.51,2750.06L4137.11,2749.12L4138.88,2745.37L4140.13,2746.31L4140.48,2745.37L4141.02,2746.31L4141.37,2747.24L4141.9,2746.31L4146.16,2729.43L4146.7,2728.49L4154.86,2679.74L4157.17,2630.99L4157.7,1773.18L4158.06,1518.18L4158.59,1741.31L4161.25,2698.49L4163.03,2726.62L4166.05,2747.24L4167.64,2750.99L4169.24,2748.18L4169.95,2749.12L4170.13,2750.06L4171.02,2749.12L4172.97,2748.18L4175.28,2741.62L4175.81,2740.68L4177.76,2735.99L4178.47,2735.06L4179.71,2733.18L4180.96,2734.12L4184.86,2733.18L4186.11,2732.24L4187.53,2733.18L4188.06,2734.12L4188.59,2733.18L4189.66,2734.12L4190.37,2735.06L4190.72,2734.12L4191.43,2733.18L4193.74,2723.81L4194.09,2724.74L4197.82,2723.81L4200.31,2716.31L4201.02,2715.37L4202.26,2709.74L4202.44,2710.68L4203.33,2709.74L4206.7,2686.31L4210.25,2638.49L4210.78,2619.74L4211.14,2394.74L4211.85,1530.37L4212.38,1789.12L4214.86,2697.56L4216.64,2736.93L4218.77,2748.18L4221.79,2758.49L4223.56,2757.56L4224.98,2753.81L4227.65,2754.74L4228.53,2755.68L4228.71,2754.74L4231.02,2755.68L4231.91,2757.56L4232.26,2756.62L4233.5,2755.68L4235.28,2751.93L4236.34,2751.93L4238.3,2742.56L4241.67,2730.37L4242.38,2729.43L4248.42,2702.24L4248.59,2703.18L4248.77,2702.24L4250.9,2693.81L4251.08,2694.74L4252.5,2696.62L4256.05,2695.68L4261.91,2660.99L4263.68,2611.31L4264.04,2381.62L4264.75,1530.37L4265.28,1775.99L4267.94,2705.06L4269.72,2736.93L4274.51,2756.62L4275.22,2755.68L4276.64,2753.81L4277,2754.74L4277.35,2753.81L4278.77,2751.93L4280.55,2752.87L4281.43,2756.62L4282.14,2755.68L4284.27,2750.06L4285.34,2749.12L4286.76,2747.24L4288,2746.31L4289.96,2738.81L4290.13,2739.74L4291.55,2741.62L4293.33,2737.87L4293.86,2736.93L4298.83,2716.31L4299.72,2715.37L4299.9,2714.43L4300.07,2715.37L4300.43,2716.31L4300.61,2715.37L4303.45,2704.12L4303.62,2705.06L4304.33,2704.12L4308.06,2679.74L4311.08,2615.99L4311.44,2214.74L4311.97,1527.56L4312.68,1835.99L4315.16,2698.49L4316.94,2733.18L4322.26,2755.68L4323.51,2754.74L4326.17,2754.74L4327.77,2748.18L4328.66,2748.18L4330.08,2743.49L4330.79,2742.56L4332.56,2738.81L4333.09,2737.87L4336.11,2727.56L4336.47,2726.62L4340.55,2710.68L4342.32,2709.74L4345.34,2698.49L4345.52,2699.43L4345.7,2698.49L4352.62,2656.31L4354.04,2632.87L4354.57,2596.31L4355.46,1529.43L4356.35,1943.81L4359.19,2936.62L4361.67,3158.81L4365.76,3332.24L4372.5,3481.31L4378.36,3557.24L4385.28,3619.12L4389.9,3649.12L4392.56,3665.99L4398.6,3692.24L4398.95,3693.18L4405.34,3721.31L4405.7,3722.24L4408.54,3731.62L4409.07,3732.56L4411.91,3741.93L4412.8,3742.87L4414.93,3748.49L4415.29,3749.43L4417.59,3755.99L4417.95,3756.93L4419.72,3760.68L4420.43,3761.62L4422.39,3766.31L4423.1,3767.24L4424.69,3770.06L4425.94,3770.99L4427.71,3774.74L4428.78,3775.68L4430.37,3778.49L4431.26,3779.43L4432.86,3782.24L4433.93,3783.18L4435.17,3785.06L4435.35,3784.12L4435.88,3785.06L4437.48,3787.87L4438.72,3788.81L4439.25,3790.68L4439.96,3789.74L4440.67,3790.68L4442.27,3793.49L4445.46,3794.43L4446,3795.37L4446.17,3794.43L4446.35,3793.49L4446.88,3794.43L4447.59,3795.37L4447.95,3794.43L4451.14,3795.37L4452.57,3797.24L4462.33,3798.18L4462.51,3799.12L4463.39,3798.18L4464.46,3797.24L4465.7,3798.18L4468.72,3799.12L4469.43,3800.06L4469.78,3799.12L4479.37,3798.18L4480.61,3797.24L4486.12,3796.31L4486.83,3795.37L4487.18,3796.31L4493.39,3795.37L4494.82,3793.49L4500.67,3792.56L4501.92,3791.62L4509.02,3790.68L4510.26,3789.74L4513.45,3788.81L4514.16,3786.93L4514.7,3787.87L4515.59,3788.81L4515.76,3787.87L4523.93,3786.93L4525.17,3785.99L4529.25,3785.06L4530.5,3784.12L4533.69,3783.18L4534.76,3782.24L4535.29,3783.18" style="fill:none;fill-rule:nonzero;stroke:rgb(0,0,255);stroke-width:10px;"/>
                    </g>
                    <g transform="matrix(0.058072,0,0,0.058072,169.016,115.063)">
                        <path d="M630,1974.91L648.105,1973.95L649.703,1973.76L679.883,1972.8L681.48,1972.61L719.648,1972.03L731.012,1827.65L739.531,1739.52L754.977,1615.49L767.402,1541.95L787.641,1459.2L797.047,1432.32L815.156,1395.65L819.238,1389.69L822.434,1385.28L840.008,1367.81L841.43,1366.85L845.332,1364.16L847.109,1363.2L850.125,1361.47L852.434,1360.51L855.098,1359.17L857.938,1358.21L860.246,1357.25L863.797,1356.29L865.746,1355.71L870.363,1354.75L872.141,1354.37L880.66,1353.41L882.258,1353.21L910.66,1354.17L912.438,1354.56L920.781,1355.52L922.555,1355.9L929.301,1356.86L931.074,1357.25L937.113,1358.21L938.887,1358.59L944.391,1359.55L946.164,1359.93L951.492,1360.89L953.266,1361.28L958.594,1362.24L960.367,1362.62L965.516,1363.58L967.289,1363.97L972.617,1364.93L974.391,1365.31L979.719,1366.27L981.492,1366.65L986.996,1367.61L988.77,1368L994.629,1368.96L996.402,1369.34L1002.44,1370.3L1004.21,1370.69L1010.61,1371.65L1012.38,1372.03L1019.13,1372.99L1020.9,1373.37L1028.36,1374.33L1030.13,1374.72L1038.12,1375.68L1039.9,1376.06L1048.77,1377.02L1050.55,1377.41L1060.49,1378.37L1062.09,1378.56L1071.5,1379.52L1073.09,1379.71L1083.74,1380.67L1085.34,1380.86L1097.59,1381.82L1099.19,1382.01L1113.75,1382.97L1115.34,1383.17L1133.1,1384.13L1134.69,1384.32L1157.59,1385.28L1159.19,1385.47L1191.32,1386.43L1192.92,1386.62L1247.77,1387.58L1249.37,1387.77L1429.73,1388.73L1441.09,1533.31L1454.05,1661.57L1472.16,1790.4L1485.83,1858.37L1495.24,1894.27L1507.13,1929.21L1524.88,1965.12L1529.15,1971.26L1532.16,1975.29L1549.38,1992.38L1550.8,1993.34L1554.53,1995.84L1556.31,1996.8L1559.15,1998.33L1561.28,1999.29L1563.76,2000.45L1566.25,2001.41L1568.38,2002.17L1571.57,2003.13L1573.53,2003.71L1577.96,2004.67L1579.74,2005.05L1587.55,2006.01L1589.15,2006.21L1606.37,2006.21L1607.61,1974.91L1624.65,1973.95L1626.25,1973.76L1656.43,1972.8L1658.03,1972.61L1696.19,1972.03L1705.78,1806.72L1717.85,1640.25L1729.21,1518.14L1738.44,1438.85L1749.98,1359.93L1757.44,1318.65L1765.6,1280.45L1776.25,1239.17L1795.07,1181.76L1799.87,1168.89L1806.61,1150.65L1810.87,1138.94L1825.43,1088.06L1831.46,1049.66L1834.3,1016.64L1836.61,957.502L1837.68,857.282L1837.85,777.022L1839.1,1134.14L1841.76,1134.14L1854.54,1285.82L1865.9,1385.66L1877.97,1456.89L1882.94,1477.82L1893.95,1509.89L1899.99,1520.45L1909.75,1529.47L1912.95,1530.43L1914.72,1530.81L1921.11,1529.85L1923.6,1528.7L1925.55,1527.74L1930.34,1524.09L1931.59,1523.13L1947.03,1504.89L1950.76,1499.33L1954.31,1493.95L1959.1,1486.08L1961.94,1481.47L1967.8,1471.29L1970.11,1467.26L1976.85,1455.17L1979.16,1451.13L1986.62,1437.5L1988.93,1433.47L1996.2,1420.22L1998.51,1416.19L2005.08,1404.48L2007.56,1400.25L2013.42,1390.08L2016.09,1385.66L2021.41,1376.64L2024.43,1371.84L2029.04,1364.35L2032.42,1359.17L2036.5,1352.83L2043.96,1341.69L2048.39,1335.36L2051.77,1330.56L2057.45,1322.88L2060.47,1318.85L2068.1,1309.05L2070.94,1305.41L2121.36,1252.41L2122.6,1251.45L2130.23,1244.73L2131.47,1243.77L2137.87,1238.4L2139.11,1237.44L2144.79,1232.83L2146.21,1231.87L2151.53,1227.65L2152.95,1226.69L2157.93,1222.85L2159.35,1221.89L2163.78,1218.62L2165.2,1217.66L2169.64,1214.4L2171.24,1213.44L2175.68,1210.17L2177.28,1209.21L2181.36,1206.33L2182.96,1205.37L2187.04,1202.49L2188.64,1201.53L2192.72,1198.65L2194.32,1197.69L2198.05,1195.2L2199.64,1194.24L2203.55,1191.55L2205.15,1190.59L2209.05,1187.9L2210.65,1186.94L2214.38,1184.45L2215.97,1183.49L2219.88,1180.8L2221.48,1179.84L2225.38,1177.15L2226.98,1176.19L2231.24,1173.12L2232.84,1172.16L2237.1,1169.09L2238.52,1168.13L2242.96,1164.86L2244.38,1163.9L2249.17,1160.25L2250.59,1159.29L2256.45,1154.49L2257.69,1153.53L2265.33,1146.81L2266.39,1145.85L2287.52,1121.47L2292.49,1113.21L2294.62,1109.37L2302.96,1088.83L2308.29,1067.9L2312.72,1037.95L2315.56,999.742L2317.34,942.142L2318.23,820.032L2319.47,1134.14L2322.13,1134.14L2323.2,1147.77L2335.98,1312.13L2342.72,1379.33L2349.12,1430.78L2356.04,1474.75L2364.21,1512.96L2369.71,1531.97L2383.73,1559.81L2389.59,1564.61L2392.43,1565.57L2394.21,1565.95L2401.13,1564.99L2403.97,1563.45L2405.57,1562.49L2406.28,1561.92L2415.86,1717.82L2423.67,1819.77L2432.73,1914.43L2440.18,1976.45L2448.71,2032.7L2459.53,2085.31L2466.1,2108.93L2473.38,2128.89L2482.97,2147.13L2497.35,2161.15L2499.65,2162.11L2501.78,2162.88L2518.12,2161.92L2520.42,2160.96L2522.73,2160L2525.75,2158.27L2527.52,2157.31L2531.08,2155.01L2532.5,2154.05L2537.29,2150.4L2538.71,2149.44L2546.16,2142.91L2547.41,2141.95L2562.67,2126.97L2563.74,2126.01L2582.91,2106.24L2584.15,1974.91L2601.2,1973.95L2602.79,1973.76L2632.97,1972.8L2634.57,1972.61L2672.74,1972.03L2682.32,1724.16L2692.09,1517.37L2704.51,1308.67L2724.57,1011.65L2726.35,934.272L2727.06,807.932L2728.3,1134.14L2731.5,1134.91L2737,1144.32L2749.25,1156.03L2760.61,1155.07L2773.21,1139.9L2782.62,1117.05L2788.66,1093.82L2792.56,1072.13L2795.94,1043.71L2798.78,1001.28L2800.55,937.732L2801.26,849.792L2801.44,741.122L2802.68,1134.14L2805.35,1134.14L2818.66,1266.24L2825.41,1315.01L2836.06,1366.65L2840.14,1379.52L2844.22,1389.12L2848.66,1396.22L2853.99,1400.45L2862.15,1399.49L2874.76,1384.32L2893.22,1341.89L2907.78,1298.3L2910.26,1290.43L2930.14,1222.27L2938.84,1189.44L2943.46,1170.81L2954.64,1117.63L2959.79,1083.84L2963.69,1046.21L2966.53,997.052L2968.13,931.202L2968.84,807.742L2970.09,1134.14L2972.93,1134.91L2982.33,1215.74L2991.39,1275.84L2999.2,1312.13L3008.43,1338.62L3010.56,1342.46L3013.93,1347.26L3019.26,1351.49L3028.13,1350.53L3041.98,1334.01L3063.11,1285.82L3074.29,1253.18L3077.13,1244.54L3095.77,1180.41L3111.92,1105.73L3115.65,1080L3120.27,1030.46L3122.58,979.972L3123.82,911.232L3124.35,767.612L3125.59,1134.14L3128.26,1134.14L3144.23,1262.78L3155.59,1318.46L3163.94,1341.89L3168.91,1350.14L3174.94,1355.13L3183.64,1354.17L3197.49,1337.66L3218.26,1290.24L3229.09,1258.75L3231.93,1250.11L3251.81,1181.95L3268.32,1105.73L3274.18,1060.61L3277.2,1021.25L3279.33,965.572L3280.39,884.732L3280.75,715.972L3281.99,1134.14L3284.65,1134.14L3300.45,1261.44L3311.99,1318.08L3320.33,1341.5L3325.31,1349.76L3331.16,1354.56L3340.22,1353.6L3353.71,1337.47L3374.83,1289.28L3382.82,1266.43L3394.36,1526.4L3404.48,1702.08L3414.42,1836.29L3423.47,1930.94L3430.93,1992.96L3439.27,2047.68L3444.95,2077.63L3456.67,2123.52L3460.22,2133.69L3464.84,2145.02L3472.65,2159.42L3486.49,2172.86L3488.8,2173.82L3490.93,2174.59L3506.2,2173.63L3508.51,2172.67L3510.64,2171.71L3513.66,2169.98L3515.43,2169.02L3519.34,2166.33L3520.76,2165.37L3526.26,2160.96L3527.5,2160L3537.98,2150.21L3539.04,2149.25L3559.46,2127.55L3560.7,1974.91L3577.74,1973.95L3579.34,1973.76L3609.52,1972.8L3611.11,1972.61L3649.28,1972.03L3659.76,1435.2L3670.58,910.652L3670.94,828.862L3672.18,1134.14L3674.84,1134.14L3676.09,1102.27L3679.64,971.712L3680.7,846.912L3680.88,697.532L3682.12,1134.14L3684.79,1134.14L3690.11,1051.01L3692.77,974.592L3693.84,893.572L3694.19,782.012L3695.44,1134.14L3698.99,1133.18L3701.47,1128.96L3705.02,1118.78L3708.22,1104.77L3712.66,1075.01L3716.21,1034.69L3718.51,984.572L3719.93,901.632L3720.29,825.602L3721.53,1134.14L3724.37,1134.72L3730.59,1167.93L3735.56,1184.83L3740.17,1192.51L3746.03,1191.55L3748.87,1186.94L3753.31,1174.85L3757.57,1157.37L3764.67,1113.41L3770.17,1056.96L3773.01,1003.77L3774.79,923.712L3775.32,837.122L3776.56,1134.14L3779.58,1135.1L3784.02,1149.5L3788.99,1157.95L3794.85,1156.99L3797.87,1152.19L3801.59,1141.63L3805.32,1125.89L3808.52,1107.45L3812.6,1074.24L3815.8,1032.96L3818.1,976.132L3819.35,889.922L3819.7,765.892L3820.94,1134.14L3823.78,1135.1L3832.48,1167.93L3836.57,1174.46L3838.52,1175.42L3839.76,1175.61L3839.94,1175.42L3841.71,1174.46L3845.62,1168.7L3849.53,1157.76L3853.61,1140.86L3857.16,1120.89L3861.95,1082.88L3865.5,1038.14L3867.99,978.432L3869.23,896.062L3869.59,801.212L3870.83,1134.14L3873.67,1134.53L3879.88,1156.61L3885.03,1165.25L3890.71,1164.29L3893.55,1159.68L3897.63,1148.35L3901.54,1132.03L3907.22,1095.74L3911.84,1046.21L3914.5,991.492L3915.92,920.452L3916.45,824.452L3917.69,1134.14L3920.53,1134.53L3925.33,1154.49L3930.3,1167.17L3935.45,1171.2L3937.75,1170.24L3941.66,1164.48L3945.56,1153.53L3949.47,1137.21L3953.02,1117.25L3957.64,1080.19L3961.72,1024.7L3963.85,962.302L3964.91,860.352L3965.09,785.472L3966.33,1134.14L3969.17,1134.91L3973.44,1152L3976.63,1161.02L3980.89,1167.74L3986.57,1166.78L3989.59,1161.98L3993.67,1150.65L4001.13,1113.6L4005.39,1079.04L4008.76,1036.03L4011.25,974.592L4012.49,882.242L4012.84,601.152L4014.09,1134.14L4016.93,1134.91L4021.37,1152.96L4026.34,1165.63L4031.48,1169.66L4033.61,1168.7L4037.7,1162.75L4041.43,1152.38L4049.24,1113.79L4053.5,1079.04L4056.87,1035.84L4059.36,974.012L4060.6,879.362L4060.78,834.812L4062.02,1134.14L4064.86,1134.53L4069.3,1152.57L4072.49,1161.79L4076.75,1168.51L4082.61,1167.55L4085.63,1162.75L4089.53,1151.81L4097.17,1113.98L4101.43,1079.42L4105.51,1023.55L4107.64,960.002L4108.71,847.492L4108.88,721.152L4110.13,1134.14L4112.97,1134.91L4117.4,1152.96L4122.2,1165.05L4127.52,1169.28L4129.65,1168.32L4133.56,1162.56L4137.46,1151.81L4145.1,1114.17L4150.96,1061.95L4153.97,1012.8L4155.93,941.182L4156.64,854.592L4156.81,762.812L4158.06,1134.14L4160.9,1134.91L4165.34,1152.96L4170.31,1165.44L4172.97,1168.7L4175.1,1169.47L4177.76,1168.51L4181.49,1162.94L4185.4,1152.19L4193.21,1113.6L4199.06,1060.8L4201.91,1014.53L4203.86,946.172L4204.75,820.032L4205.99,1134.14L4208.83,1134.53L4213.27,1152.57L4218.24,1165.25L4223.39,1169.28L4225.69,1168.32L4229.6,1162.56L4233.33,1152.19L4241.14,1113.6L4245.4,1078.85L4248.77,1035.65L4251.26,973.632L4252.5,878.012L4252.68,832.132L4253.92,1134.14L4256.76,1134.53L4261.2,1152.77L4266.17,1165.44L4271.49,1169.66L4273.45,1168.7L4277.53,1162.75L4281.43,1152L4289.07,1114.37L4294.93,1062.14L4297.94,1013.18L4299.9,941.952L4300.61,858.052L4300.78,777.022L4302.03,1134.14L4304.87,1134.91L4309.31,1152.96L4314.28,1165.44L4319.42,1169.47L4321.55,1168.51L4325.46,1162.75L4329.54,1151.42L4337,1114.56L4343.03,1060.41L4346.23,1005.31L4348,931.972L4348.72,803.522L4349.96,1134.14L4352.8,1134.53L4357.24,1152.57L4359.37,1158.91L4369.84,1717.63L4378.72,2080.32L4387.59,2358.91L4396.29,2564.93L4404.1,2703.17L4411.91,2804.93L4419.19,2872.13L4425.94,2914.75L4430.91,2935.87L4436.59,2950.85L4444.4,2957.76L4447.42,2956.8L4454.87,2947.2L4463.04,2927.04L4474.22,2887.1L4491.62,2807.04L4529.25,2609.47L4535.29,2578.56L4536,2574.91" style="fill:none;fill-rule:nonzero;stroke:rgb(255,0,0);stroke-width:10px;"/>
                    </g>
                </g>
            </g>
            <g transform="matrix(0,-0.058072,-0.058072,0,231.85,332.073)">
                <path d="M610,452L650,452" style="fill:none;fill-rule:nonzero;stroke:black;stroke-width:5px;stroke-linecap:butt;"/>
            </g>
            <g transform="matrix(0,0.058072,0.058072,0,-19.0211,60.5281)">
                <path d="M610,3868L650,3868" style="fill:none;fill-rule:nonzero;stroke:black;stroke-width:5px;stroke-linecap:butt;"/>
            </g>
            <g transform="matrix(0,-0.058072,-0.058072,0,277.209,377.432)">
                <path d="M1391.09,452L1431.09,452" style="fill:none;fill-rule:nonzero;stroke:black;stroke-width:5px;stroke-linecap:butt;"/>
            </g>
            <g transform="matrix(0,0.058072,0.058072,0,26.3383,15.1687)">
                <path d="M1391.09,3868L1431.09,3868" style="fill:none;fill-rule:nonzero;stroke:black;stroke-width:5px;stroke-linecap:butt;"/>
            </g>
            <g transform="matrix(0,-0.058072,-0.058072,0,322.569,422.792)">
                <path d="M2172.19,452L2212.19,452" style="fill:none;fill-rule:nonzero;stroke:black;stroke-width:5px;stroke-linecap:butt;"/>
            </g>
            <g transform="matrix(0,0.058072,0.058072,0,71.6984,-30.1914)">
                <path d="M2172.19,3868L2212.19,3868" style="fill:none;fill-rule:nonzero;stroke:black;stroke-width:5px;stroke-linecap:butt;"/>
            </g>
            <g transform="matrix(0,-0.058072,-0.058072,0,367.929,468.152)">
                <path d="M2953.28,452L2993.28,452" style="fill:none;fill-rule:nonzero;stroke:black;stroke-width:5px;stroke-linecap:butt;"/>
            </g>
            <g transform="matrix(0,0.058072,0.058072,0,117.058,-75.5508)">
                <path d="M2953.28,3868L2993.28,3868" style="fill:none;fill-rule:nonzero;stroke:black;stroke-width:5px;stroke-linecap:butt;"/>
            </g>
            <g transform="matrix(0,-0.058072,-0.058072,0,413.288,513.511)">
                <path d="M3734.37,452L3774.37,452" style="fill:none;fill-rule:nonzero;stroke:black;stroke-width:5px;stroke-linecap:butt;"/>
            </g>
            <g transform="matrix(0,0.058072,0.058072,0,162.417,-120.91)">
                <path d="M3734.37,3868L3774.37,3868" style="fill:none;fill-rule:nonzero;stroke:black;stroke-width:5px;stroke-linecap:butt;"/>
            </g>
            <g transform="matrix(0.058072,0,0,0.058072,169.016,271.562)">
                <path d="M630,432L670,432" style="fill:none;fill-rule:nonzero;stroke:black;stroke-width:5px;stroke-linecap:butt;"/>
            </g>
            <g transform="matrix(-0.058072,0,0,0.058072,693.522,271.562)">
                <path d="M4496,432L4536,432" style="fill:none;fill-rule:nonzero;stroke:black;stroke-width:5px;stroke-linecap:butt;"/>
            </g>
            <g transform="matrix(0.058072,0,0,0.058072,169.016,226.962)">
                <path d="M630,816L670,816" style="fill:none;fill-rule:nonzero;stroke:black;stroke-width:5px;stroke-linecap:butt;"/>
            </g>
            <g transform="matrix(-0.058072,0,0,0.058072,693.522,226.962)">
                <path d="M4496,816L4536,816" style="fill:none;fill-rule:nonzero;stroke:black;stroke-width:5px;stroke-linecap:butt;"/>
            </g>
            <g transform="matrix(0.058072,0,0,0.058072,169.016,182.363)">
                <path d="M630,1200L670,1200" style="fill:none;fill-rule:nonzero;stroke:black;stroke-width:5px;stroke-linecap:butt;"/>
            </g>
            <g transform="matrix(-0.058072,0,0,0.058072,693.522,182.363)">
                <path d="M4496,1200L4536,1200" style="fill:none;fill-rule:nonzero;stroke:black;stroke-width:5px;stroke-linecap:butt;"/>
            </g>
            <g transform="matrix(0.058072,0,0,0.058072,169.016,137.764)">
                <path d="M630,1584L670,1584" style="fill:none;fill-rule:nonzero;stroke:black;stroke-width:5px;stroke-linecap:butt;"/>
            </g>
            <g transform="matrix(-0.058072,0,0,0.058072,693.522,137.764)">
                <path d="M4496,1584L4536,1584" style="fill:none;fill-rule:nonzero;stroke:black;stroke-width:5px;stroke-linecap:butt;"/>
            </g>
            <g transform="matrix(0.058072,0,0,0.058072,169.016,93.1646)">
                <path d="M630,1968L670,1968" style="fill:none;fill-rule:nonzero;stroke:black;stroke-width:5px;stroke-linecap:butt;"/>
            </g>
            <g transform="matrix(-0.058072,0,0,0.058072,693.522,93.1646)">
                <path d="M4496,1968L4536,1968" style="fill:none;fill-rule:nonzero;stroke:black;stroke-width:5px;stroke-linecap:butt;"/>
            </g>
            <g transform="matrix(0.058072,0,0,0.058072,169.016,48.5653)">
                <path d="M630,2352L670,2352" style="fill:none;fill-rule:nonzero;stroke:black;stroke-width:5px;stroke-linecap:butt;"/>
            </g>
            <g transform="matrix(-0.058072,0,0,0.058072,693.522,48.5653)">
                <path d="M4496,2352L4536,2352" style="fill:none;fill-rule:nonzero;stroke:black;stroke-width:5px;stroke-linecap:butt;"/>
            </g>
            <g transform="matrix(0.058072,0,0,0.058072,169.016,3.96602)">
                <path d="M630,2736L670,2736" style="fill:none;fill-rule:nonzero;stroke:black;stroke-width:5px;stroke-linecap:butt;"/>
            </g>
            <g transform="matrix(-0.058072,0,0,0.058072,693.522,3.96602)">
                <path d="M4496,2736L4536,2736" style="fill:none;fill-rule:nonzero;stroke:black;stroke-width:5px;stroke-linecap:butt;"/>
            </g>
            <g transform="matrix(0.058072,0,0,0.058072,169.016,-40.6333)">
                <path d="M630,3120L670,3120" style="fill:none;fill-rule:nonzero;stroke:black;stroke-width:5px;stroke-linecap:butt;"/>
            </g>
            <g transform="matrix(-0.058072,0,0,0.058072,693.522,-40.6333)">
                <path d="M4496,3120L4536,3120" style="fill:none;fill-rule:nonzero;stroke:black;stroke-width:5px;stroke-linecap:butt;"/>
            </g>
            <g transform="matrix(0.058072,0,0,0.058072,169.016,-85.2326)">
                <path d="M630,3504L670,3504" style="fill:none;fill-rule:nonzero;stroke:black;stroke-width:5px;stroke-linecap:butt;"/>
            </g>
            <g transform="matrix(-0.058072,0,0,0.058072,693.522,-85.2326)">
                <path d="M4496,3504L4536,3504" style="fill:none;fill-rule:nonzero;stroke:black;stroke-width:5px;stroke-linecap:butt;"/>
            </g>
            <g transform="matrix(0.058072,0,0,0.058072,169.016,-129.832)">
                <path d="M630,3888L670,3888" style="fill:none;fill-rule:nonzero;stroke:black;stroke-width:5px;stroke-linecap:butt;"/>
            </g>
            <g transform="matrix(-0.058072,0,0,0.058072,693.522,-129.832)">
                <path d="M4496,3888L4536,3888" style="fill:none;fill-rule:nonzero;stroke:black;stroke-width:5px;stroke-linecap:butt;"/>
            </g>
            <g transform="matrix(0.058072,0,0,0.058072,169.016,-129.832)">
                <path d="M630,3888L4536,3888" style="fill:none;fill-rule:nonzero;stroke:black;stroke-width:10px;stroke-linecap:butt;"/>
            </g>
            <g transform="matrix(0,-0.058072,-0.058072,0,557.866,459.715)">
                <path d="M2808,2160L6264,2160" style="fill:none;fill-rule:nonzero;stroke:black;stroke-width:10px;stroke-linecap:butt;"/>
            </g>
            <g transform="matrix(0.058072,0,0,0.058072,169.016,271.562)">
                <path d="M630,432L4536,432" style="fill:none;fill-rule:nonzero;stroke:black;stroke-width:10px;stroke-linecap:butt;"/>
            </g>
            <g transform="matrix(0,-0.058072,-0.058072,0,331.037,232.886)">
                <path d="M-1098,2160L2358,2160" style="fill:none;fill-rule:nonzero;stroke:black;stroke-width:10px;stroke-linecap:butt;"/>
            </g>
            <g transform="matrix(0.058072,0,0,0.058072,169.016,-94.8645)">
                <rect x="3515.76" y="3357.86" width="948.238" height="458.141" style="fill:white;stroke:black;stroke-width:10px;stroke-linecap:butt;"/>
            </g>
            <g transform="matrix(0.058072,0,0,0.058072,169.016,-108.274)">
                <path d="M3616.56,3702.39L3818.16,3702.39" style="fill:none;fill-rule:nonzero;stroke:rgb(0,0,255);stroke-width:10px;"/>
            </g>
            <text x="203.846px" y="304.271px" style="font-family:'LucidaGrande', 'Lucida Grande', sans-serif;font-weight:500;font-size:6.969px;">0</text>
            <text x="244.773px" y="304.271px" style="font-family:'LucidaGrande', 'Lucida Grande', sans-serif;font-weight:500;font-size:6.969px;">880</text>
            <text x="288.059px" y="304.271px" style="font-family:'LucidaGrande', 'Lucida Grande', sans-serif;font-weight:500;font-size:6.969px;">1760</text>
            <text x="333.292px" y="304.271px" style="font-family:'LucidaGrande', 'Lucida Grande', sans-serif;font-weight:500;font-size:6.969px;">2640</text>
            <text x="378.665px" y="304.271px" style="font-family:'LucidaGrande', 'Lucida Grande', sans-serif;font-weight:500;font-size:6.969px;">3520</text>
            <g>
                <text x="302.407px" y="313.925px" style="font-family:'LucidaGrande', 'Lucida Grande', sans-serif;font-weight:500;font-size:6.969px;">t<tspan x="305.234px 307.47px 314.197px " y="313.925px 313.925px 313.925px ">ime</tspan></text>
                <text x="320.366px" y="313.925px" style="font-family:'LucidaGrande', 'Lucida Grande', sans-serif;font-weight:500;font-size:6.969px;">[<tspan x="322.853px 329.58px 333.354px " y="313.925px 313.925px 313.925px ">ms]</tspan></text>
            </g>
            <text x="185.322px" y="298.573px" style="font-family:'LucidaGrande', 'Lucida Grande', sans-serif;font-weight:500;font-size:6.969px;"><tspan x="190.981px 195.505px 200.028px " y="298.573px 298.573px 298.573px ">120</tspan></text>
            <text x="185.322px" y="276.273px" style="font-family:'LucidaGrande', 'Lucida Grande', sans-serif;font-weight:500;font-size:6.969px;"><tspan x="190.981px 195.505px 200.028px " y="276.273px 276.273px 276.273px ">100</tspan></text>
            <text x="189.759px" y="253.973px" style="font-family:'LucidaGrande', 'Lucida Grande', sans-serif;font-weight:500;font-size:6.969px;"><tspan x="195.463px 200.031px " y="253.973px 253.973px ">80</tspan></text>
            <text x="189.759px" y="231.673px" style="font-family:'LucidaGrande', 'Lucida Grande', sans-serif;font-weight:500;font-size:6.969px;"><tspan x="195.463px 200.031px " y="231.673px 231.673px ">60</tspan></text>
            <text x="189.759px" y="209.374px" style="font-family:'LucidaGrande', 'Lucida Grande', sans-serif;font-weight:500;font-size:6.969px;"><tspan x="195.463px 200.031px " y="209.374px 209.374px ">40</tspan></text>
            <text x="189.759px" y="187.074px" style="font-family:'LucidaGrande', 'Lucida Grande', sans-serif;font-weight:500;font-size:6.969px;"><tspan x="195.463px 200.031px " y="187.074px 187.074px ">20</tspan></text>
            <text x="199.767px" y="164.774px" style="font-family:'LucidaGrande', 'Lucida Grande', sans-serif;font-weight:500;font-size:6.969px;">0</text>
            <text x="195.375px" y="142.475px" style="font-family:'LucidaGrande', 'Lucida Grande', sans-serif;font-weight:500;font-size:6.969px;">20</text>
            <text x="195.212px" y="120.175px" style="font-family:'LucidaGrande', 'Lucida Grande', sans-serif;font-weight:500;font-size:6.969px;">40</text>
            <text x="195.357px" y="97.875px" style="font-family:'LucidaGrande', 'Lucida Grande', sans-serif;font-weight:500;font-size:6.969px;">60</text>
            <g transform="matrix(0,-1,1,0,0,0)">
                <text x="-218.631px" y="180.966px" style="font-family:'LucidaGrande', 'Lucida Grande', sans-serif;font-weight:500;font-size:6.969px;">v<tspan x="-214.784px -210.264px -208.01px -205.163px -201.075px -196.49px " y="180.966px 180.966px 180.966px 180.966px 180.966px 180.966px ">oltage</tspan></text>
                <text x="-190.379px" y="180.966px" style="font-family:'LucidaGrande', 'Lucida Grande', sans-serif;font-weight:500;font-size:6.969px;">[<tspan x="-187.873px -181.127px -176.331px " y="180.966px 180.966px 180.966px ">mV]</tspan></text>
            </g>
            <g>
                <text x="399.942px" y="109.658px" style="font-family:'LucidaGrande', 'Lucida Grande', sans-serif;font-weight:500;font-size:8.362px;">t<tspan x="403.289px 408.126px 411.766px 417.199px 422.077px " y="109.658px 109.658px 109.658px 109.658px 109.658px ">arget</tspan></text>
                <text x="399.942px" y="121.71px" style="font-family:'LucidaGrande', 'Lucida Grande', sans-serif;font-weight:500;font-size:8.362px;">m<tspan x="407.958px 413.303px 418.775px 423.642px " y="121.71px 121.71px 121.71px 121.71px ">odel</tspan></text>
            </g>
            <g transform="matrix(0.058072,0,0,0.058072,169.016,-84.1791)">
                <path d="M3616.56,3494.93L3818.16,3494.93" style="fill:none;fill-rule:nonzero;stroke:rgb(255,0,0);stroke-width:10px;"/>
            </g>
        </g>
    </g>
</svg>
